<?xml version="1.0" encoding="utf-8"?>
<svg viewBox="-673.148 -35.326 1718.075 515.292" xmlns="http://www.w3.org/2000/svg">
  <rect style="fill-rule: nonzero; stroke-miterlimit: 6; paint-order: stroke; stroke-width: 65px; stroke: rgb(61, 59, 59); fill: rgb(245, 245, 244);" x="-633.604" y="1.801" width="1638.988" height="441.039" rx="25" ry="25">
    <title>Works for Good Logo</title>
  </rect>
  <path d="M -559.304 193.312 L -508.586 193.312 L -508.586 219 L -519.554 219 L -509.242 253.593 L -489.273 193.312 L -461.804 193.312 L -441.648 256.687 L -429.273 219 L -439.679 219 L -439.679 193.312 L -388.961 193.312 L -388.961 219 L -401.992 219 L -427.961 290.812 L -455.992 290.812 L -476.336 228.843 L -497.054 290.812 L -524.336 290.812 L -548.429 219 L -559.304 219 Z" style="fill: rgb(51, 51, 51); white-space: pre;"/>
  <path d="M -378.471 241.5 Q -378.471 230.906 -374.627 221.625 Q -370.783 212.343 -363.939 205.406 Q -357.096 198.468 -347.627 194.437 Q -338.158 190.406 -326.814 190.406 Q -315.471 190.406 -305.955 194.437 Q -296.439 198.468 -289.596 205.406 Q -282.752 212.343 -278.955 221.625 Q -275.158 230.906 -275.158 241.5 Q -275.158 252.093 -278.861 261.421 Q -282.564 270.75 -289.361 277.734 Q -296.158 284.718 -305.674 288.75 Q -315.189 292.781 -326.814 292.781 Q -338.533 292.781 -348.049 288.75 Q -357.564 284.718 -364.314 277.781 Q -371.064 270.843 -374.768 261.515 Q -378.471 252.187 -378.471 241.5 Z M -350.439 241.5 Q -350.439 247.031 -348.564 251.671 Q -346.689 256.312 -343.455 259.687 Q -340.221 263.062 -335.955 264.937 Q -331.689 266.812 -326.814 266.812 Q -321.846 266.812 -317.58 264.984 Q -313.314 263.156 -310.174 259.781 Q -307.033 256.406 -305.252 251.765 Q -303.471 247.125 -303.471 241.5 Q -303.471 235.687 -305.252 231 Q -307.033 226.312 -310.174 223.031 Q -313.314 219.75 -317.58 218.015 Q -321.846 216.281 -326.814 216.375 Q -331.689 216.281 -335.955 218.015 Q -340.221 219.75 -343.455 223.031 Q -346.689 226.312 -348.564 231 Q -350.439 235.687 -350.439 241.5 Z" style="fill: rgb(51, 51, 51); white-space: pre;"/>
  <path d="M -172.877 228.656 L -199.221 228.656 L -199.221 218.625 Q -203.064 218.625 -206.252 219.14 Q -209.439 219.656 -211.83 220.875 Q -214.221 222.093 -215.861 224.25 Q -217.502 226.406 -218.158 229.593 L -218.158 264.75 L -198.377 264.75 L -198.377 290.437 L -261.752 290.437 L -261.752 264.75 L -247.221 264.75 L -247.221 219 L -261.564 219 L -261.564 193.312 L -218.346 193.312 L -218.346 200.156 Q -214.221 196.875 -209.064 195.093 Q -203.908 193.312 -197.814 193.312 Q -191.627 193.312 -185.064 193.406 Q -178.502 193.5 -172.877 193.5 Z" style="fill: rgb(51, 51, 51); white-space: pre;"/>
  <path d="M -158.918 144.562 L -115.137 144.562 L -115.137 228.656 L -98.731 228.656 L -91.981 219 L -91.981 193.312 L -41.731 193.312 L -41.731 219 L -59.168 219 L -77.262 239.906 L -58.793 262.218 L -42.668 262.218 L -42.668 290.437 L -69.012 290.437 L -100.512 248.812 L -115.137 248.812 L -115.137 264.75 L -105.2 264.75 L -105.2 290.437 L -158.918 290.437 L -158.918 264.75 L -143.918 264.75 L -143.918 170.25 L -158.918 170.25 Z" style="fill: rgb(51, 51, 51); white-space: pre;"/>
  <path d="M 40.957 223.031 Q 40.957 220.781 39.504 218.718 Q 38.051 216.656 35.238 215.109 Q 32.426 213.562 28.347 212.625 Q 24.269 211.687 19.113 211.687 Q 17.144 211.687 14.894 212.015 Q 12.644 212.343 10.722 213.187 Q 8.801 214.031 7.535 215.484 Q 6.269 216.937 6.269 219.187 Q 6.269 220.312 6.597 221.343 Q 6.926 222.375 7.863 223.312 Q 8.801 224.25 10.441 225.046 Q 12.082 225.843 14.707 226.312 L 32.332 229.781 Q 41.894 231.656 48.363 234.468 Q 54.832 237.281 58.769 241.031 Q 62.707 244.781 64.441 249.375 Q 66.176 253.968 66.176 259.312 Q 66.176 267.656 62.285 273.937 Q 58.394 280.218 52.066 284.39 Q 45.738 288.562 37.816 290.671 Q 29.894 292.781 21.832 292.781 Q 16.582 292.781 12.316 292.125 Q 8.051 291.468 4.629 290.343 Q 1.207 289.218 -1.465 287.671 Q -4.137 286.125 -6.387 284.25 L -23.356 284.25 L -23.356 258.187 L 3.176 258.187 L 3.176 258.75 Q 3.269 261.468 4.863 263.484 Q 6.457 265.5 9.035 266.906 Q 11.613 268.312 14.894 269.015 Q 18.176 269.718 21.832 269.718 Q 30.269 269.718 34.113 267.515 Q 37.957 265.312 37.957 261.843 Q 37.957 259.125 36.082 257.203 Q 34.207 255.281 29.426 254.156 L 11.426 250.312 Q -5.543 247.031 -14.168 239.39 Q -22.793 231.75 -22.793 219.75 Q -22.793 212.718 -19.512 206.953 Q -16.231 201.187 -10.606 197.109 Q -4.981 193.031 2.566 190.781 Q 10.113 188.531 18.738 188.531 Q 24.644 188.531 29.238 189.234 Q 33.832 189.937 37.488 191.062 Q 41.144 192.187 43.91 193.734 Q 46.676 195.281 48.832 196.968 L 65.144 196.968 L 65.144 223.031 L 40.957 223.031 Z" style="fill: rgb(51, 51, 51); white-space: pre;"/>
  <path d="M 162.915 193.312 L 180.634 193.312 L 180.634 217.875 L 162.915 217.875 L 162.915 264.75 L 180.822 264.75 L 180.822 290.437 L 120.54 290.437 L 120.54 264.75 L 135.072 264.75 L 135.072 217.875 L 120.353 217.875 L 120.353 193.312 L 135.072 193.312 L 135.072 177.187 Q 135.072 168.656 138.072 162.187 Q 141.072 155.718 146.087 151.312 Q 151.103 146.906 157.665 144.656 Q 164.228 142.406 171.447 142.406 Q 176.79 142.406 181.009 143.203 Q 185.228 144 188.415 145.218 Q 191.603 146.437 193.806 147.843 Q 196.009 149.25 197.322 150.468 L 186.54 170.25 Q 184.384 168.656 181.665 167.718 Q 178.947 166.781 175.009 166.781 Q 172.478 166.781 170.275 167.625 Q 168.072 168.468 166.431 170.062 Q 164.79 171.656 163.853 174.046 Q 162.915 176.437 162.915 179.625 Z" style="fill: rgb(51, 51, 51); white-space: pre;"/>
  <path d="M 196.384 241.5 Q 196.384 230.906 200.228 221.625 Q 204.072 212.343 210.915 205.406 Q 217.759 198.468 227.228 194.437 Q 236.697 190.406 248.04 190.406 Q 259.384 190.406 268.9 194.437 Q 278.415 198.468 285.259 205.406 Q 292.103 212.343 295.9 221.625 Q 299.697 230.906 299.697 241.5 Q 299.697 252.093 295.994 261.421 Q 292.29 270.75 285.494 277.734 Q 278.697 284.718 269.181 288.75 Q 259.665 292.781 248.04 292.781 Q 236.322 292.781 226.806 288.75 Q 217.29 284.718 210.54 277.781 Q 203.79 270.843 200.087 261.515 Q 196.384 252.187 196.384 241.5 Z M 224.415 241.5 Q 224.415 247.031 226.29 251.671 Q 228.165 256.312 231.4 259.687 Q 234.634 263.062 238.9 264.937 Q 243.165 266.812 248.04 266.812 Q 253.009 266.812 257.275 264.984 Q 261.54 263.156 264.681 259.781 Q 267.822 256.406 269.603 251.765 Q 271.384 247.125 271.384 241.5 Q 271.384 235.687 269.603 231 Q 267.822 226.312 264.681 223.031 Q 261.54 219.75 257.275 218.015 Q 253.009 216.281 248.04 216.375 Q 243.165 216.281 238.9 218.015 Q 234.634 219.75 231.4 223.031 Q 228.165 226.312 226.29 231 Q 224.415 235.687 224.415 241.5 Z" style="fill: rgb(51, 51, 51); white-space: pre;"/>
  <path d="M 401.978 228.656 L 375.634 228.656 L 375.634 218.625 Q 371.791 218.625 368.603 219.14 Q 365.416 219.656 363.025 220.875 Q 360.634 222.093 358.994 224.25 Q 357.353 226.406 356.697 229.593 L 356.697 264.75 L 376.478 264.75 L 376.478 290.437 L 313.103 290.437 L 313.103 264.75 L 327.634 264.75 L 327.634 219 L 313.291 219 L 313.291 193.312 L 356.509 193.312 L 356.509 200.156 Q 360.634 196.875 365.791 195.093 Q 370.947 193.312 377.041 193.312 Q 383.228 193.312 389.791 193.406 Q 396.353 193.5 401.978 193.5 Z" style="fill: rgb(51, 51, 51); white-space: pre;"/>
  <path d="M 528.437 285.375 Q 523.187 288.375 517.937 289.687 Q 512.687 291 507.249 291 Q 495.999 291 486.53 287.156 Q 477.062 283.312 470.171 276.515 Q 463.28 269.718 459.437 260.437 Q 455.593 251.156 455.593 240.281 Q 455.593 230.062 459.296 221.015 Q 462.999 211.968 469.655 205.171 Q 476.312 198.375 485.593 194.437 Q 494.874 190.5 505.749 190.406 Q 512.405 190.5 517.983 191.812 Q 523.562 193.125 528.437 195.375 L 528.437 193.312 L 556.843 193.312 L 556.843 286.406 Q 556.843 298.687 552.624 307.64 Q 548.405 316.593 541.327 322.453 Q 534.249 328.312 524.874 331.171 Q 515.499 334.031 505.187 334.031 Q 492.437 334.031 481.608 330.562 Q 470.78 327.093 462.343 321.187 L 474.062 300.375 Q 480.53 304.5 488.124 306.89 Q 495.718 309.281 504.999 309.281 Q 510.062 309.281 514.327 308.156 Q 518.593 307.031 521.733 304.359 Q 524.874 301.687 526.655 297.187 Q 528.437 292.687 528.437 285.843 Z M 508.187 265.031 Q 514.749 265.031 520.046 261.703 Q 525.343 258.375 528.437 252.937 L 528.624 229.312 Q 525.437 223.406 519.905 219.937 Q 514.374 216.468 507.905 216.375 Q 503.312 216.468 498.905 218.203 Q 494.499 219.937 491.265 223.125 Q 488.03 226.312 486.155 230.671 Q 484.28 235.031 484.28 240.375 Q 484.28 246 486.155 250.593 Q 488.03 255.187 491.218 258.375 Q 494.405 261.562 498.765 263.296 Q 503.124 265.031 508.187 265.031 Z" style="fill: rgb(51, 51, 51); white-space: pre;"/>
  <path d="M 576.999 241.5 Q 576.999 230.906 580.843 221.625 Q 584.687 212.343 591.53 205.406 Q 598.374 198.468 607.843 194.437 Q 617.312 190.406 628.655 190.406 Q 639.999 190.406 649.515 194.437 Q 659.03 198.468 665.874 205.406 Q 672.718 212.343 676.515 221.625 Q 680.312 230.906 680.312 241.5 Q 680.312 252.093 676.609 261.421 Q 672.905 270.75 666.109 277.734 Q 659.312 284.718 649.796 288.75 Q 640.28 292.781 628.655 292.781 Q 616.937 292.781 607.421 288.75 Q 597.905 284.718 591.155 277.781 Q 584.405 270.843 580.702 261.515 Q 576.999 252.187 576.999 241.5 Z M 605.03 241.5 Q 605.03 247.031 606.905 251.671 Q 608.78 256.312 612.015 259.687 Q 615.249 263.062 619.515 264.937 Q 623.78 266.812 628.655 266.812 Q 633.624 266.812 637.89 264.984 Q 642.155 263.156 645.296 259.781 Q 648.437 256.406 650.218 251.765 Q 651.999 247.125 651.999 241.5 Q 651.999 235.687 650.218 231 Q 648.437 226.312 645.296 223.031 Q 642.155 219.75 637.89 218.015 Q 633.624 216.281 628.655 216.375 Q 623.78 216.281 619.515 218.015 Q 615.249 219.75 612.015 223.031 Q 608.78 226.312 606.905 231 Q 605.03 235.687 605.03 241.5 Z" style="fill: rgb(51, 51, 51); white-space: pre;"/>
  <path d="M 693.708 241.5 Q 693.708 230.906 697.551 221.625 Q 701.395 212.343 708.239 205.406 Q 715.083 198.468 724.551 194.437 Q 734.02 190.406 745.364 190.406 Q 756.708 190.406 766.223 194.437 Q 775.739 198.468 782.583 205.406 Q 789.426 212.343 793.223 221.625 Q 797.02 230.906 797.02 241.5 Q 797.02 252.093 793.317 261.421 Q 789.614 270.75 782.817 277.734 Q 776.02 284.718 766.505 288.75 Q 756.989 292.781 745.364 292.781 Q 733.645 292.781 724.13 288.75 Q 714.614 284.718 707.864 277.781 Q 701.114 270.843 697.411 261.515 Q 693.708 252.187 693.708 241.5 Z M 721.739 241.5 Q 721.739 247.031 723.614 251.671 Q 725.489 256.312 728.723 259.687 Q 731.958 263.062 736.223 264.937 Q 740.489 266.812 745.364 266.812 Q 750.333 266.812 754.598 264.984 Q 758.864 263.156 762.005 259.781 Q 765.145 256.406 766.926 251.765 Q 768.708 247.125 768.708 241.5 Q 768.708 235.687 766.926 231 Q 765.145 226.312 762.005 223.031 Q 758.864 219.75 754.598 218.015 Q 750.333 216.281 745.364 216.375 Q 740.489 216.281 736.223 218.015 Q 731.958 219.75 728.723 223.031 Q 725.489 226.312 723.614 231 Q 721.739 235.687 721.739 241.5 Z" style="fill: rgb(51, 51, 51); white-space: pre;"/>
  <path d="M 868.645 144.562 L 911.114 144.562 L 911.114 264.75 L 930.052 264.75 L 930.052 290.437 L 882.239 290.437 L 882.239 286.687 Q 877.177 289.312 871.88 290.812 Q 866.583 292.312 861.145 292.312 Q 849.989 292.312 840.661 288.328 Q 831.333 284.343 824.63 277.406 Q 817.927 270.468 814.177 261.14 Q 810.427 251.812 810.427 241.125 Q 810.427 230.437 814.13 221.203 Q 817.833 211.968 824.442 205.125 Q 831.052 198.281 840.286 194.343 Q 849.52 190.406 860.583 190.406 Q 866.677 190.406 872.02 191.578 Q 877.364 192.75 882.239 194.906 L 882.239 170.25 L 868.645 170.25 Z M 862.739 266.437 Q 868.927 266.25 873.942 263.25 Q 878.958 260.25 882.239 255.375 L 882.239 226.781 Q 878.958 221.812 873.755 219.046 Q 868.552 216.281 862.739 216.375 Q 857.864 216.281 853.598 218.062 Q 849.333 219.843 846.098 223.125 Q 842.864 226.406 840.989 231 Q 839.114 235.593 839.114 241.406 Q 839.114 247.125 840.989 251.765 Q 842.864 256.406 846.098 259.64 Q 849.333 262.875 853.598 264.562 Q 857.864 266.25 862.739 266.437 Z" style="fill: rgb(51, 51, 51); white-space: pre;"/>
</svg>