<?xml version="1.0" encoding="utf-8"?>
<svg viewBox="-729.105 -36.359 1941.037 573.42" xmlns="http://www.w3.org/2000/svg">
  <defs>
    <linearGradient gradientUnits="userSpaceOnUse" x1="231.175" y1="36.069" x2="231.175" y2="452.497" id="gradient-0" gradientTransform="matrix(3.486468, 0, 0, 1, 0, 0)">
      <stop offset="0" style="stop-color: rgb(209, 118, 232);"/>
      <stop offset="1" style="stop-color: rgb(89, 180, 233);"/>
    </linearGradient>
  </defs>
  <rect style="fill-rule: nonzero; stroke-miterlimit: 6; paint-order: stroke; stroke-width: 65px; stroke: rgb(61, 59, 59); fill: rgb(61, 59, 59);" x="-83.1" y="29.481" width="1854.174" height="441.039" rx="25" ry="25" transform="matrix(0.999524, 0.030853, -0.030853, 0.999524, -594.458514, -25.570033)">
    <title>Works for Good Logo</title>
  </rect>
  <rect style="paint-order: fill; fill-opacity: 0; stroke-width: 28px; stroke-linecap: round; stroke-miterlimit: 7; stroke: url(#gradient-0); fill: rgb(245, 245, 244);" transform="matrix(0.999525, 0.030833, -0.030833, 0.999525, -556.658281, -18.666972)" x="-108.593" y="36.069" width="1829.16" height="416.428" rx="12.682" ry="12.682"/>
  <path d="M -153.394 166.114 L -97.392 166.114 L -97.392 194.477 L -109.503 194.477 L -98.117 232.674 L -76.068 166.114 L -45.738 166.114 L -23.482 236.09 L -9.818 194.477 L -21.308 194.477 L -21.308 166.114 L 34.694 166.114 L 34.694 194.477 L 20.305 194.477 L -8.368 273.77 L -39.32 273.77 L -61.783 205.346 L -84.659 273.77 L -114.783 273.77 L -141.386 194.477 L -153.394 194.477 Z" transform="matrix(0.999532, 0.030595, -0.030595, 0.999532, -421.680756, 32.366848)" style="fill: rgb(245, 245, 244); white-space: pre;"/>
  <path d="M 46.275 219.321 Q 46.275 207.624 50.519 197.376 Q 54.763 187.127 62.319 179.467 Q 69.876 171.807 80.331 167.356 Q 90.786 162.905 103.312 162.905 Q 115.837 162.905 126.344 167.356 Q 136.851 171.807 144.407 179.467 Q 151.964 187.127 156.156 197.376 Q 160.349 207.624 160.349 219.321 Q 160.349 231.018 156.26 241.318 Q 152.171 251.618 144.666 259.33 Q 137.161 267.042 126.654 271.493 Q 116.148 275.944 103.312 275.944 Q 90.372 275.944 79.865 271.493 Q 69.359 267.042 61.905 259.381 Q 54.452 251.721 50.363 241.421 Q 46.275 231.122 46.275 219.321 Z M 77.226 219.321 Q 77.226 225.428 79.296 230.552 Q 81.366 235.676 84.938 239.403 Q 88.509 243.129 93.219 245.2 Q 97.929 247.27 103.312 247.27 Q 108.798 247.27 113.508 245.251 Q 118.218 243.233 121.686 239.506 Q 125.153 235.78 127.12 230.656 Q 129.087 225.532 129.087 219.321 Q 129.087 212.903 127.12 207.727 Q 125.153 202.551 121.686 198.928 Q 118.218 195.305 113.508 193.39 Q 108.798 191.475 103.312 191.579 Q 97.929 191.475 93.219 193.39 Q 88.509 195.305 84.938 198.928 Q 81.366 202.551 79.296 207.727 Q 77.226 212.903 77.226 219.321 Z" transform="matrix(0.999532, 0.030595, -0.030595, 0.999532, -421.680756, 32.366848)" style="fill: rgb(245, 245, 244); white-space: pre;"/>
  <path d="M 273.283 205.139 L 244.195 205.139 L 244.195 194.063 Q 239.951 194.063 236.432 194.632 Q 232.912 195.202 230.272 196.547 Q 227.633 197.893 225.821 200.274 Q 224.01 202.655 223.285 206.174 L 223.285 244.993 L 245.127 244.993 L 245.127 273.356 L 175.15 273.356 L 175.15 244.993 L 191.195 244.993 L 191.195 194.477 L 175.357 194.477 L 175.357 166.114 L 223.078 166.114 L 223.078 173.67 Q 227.633 170.047 233.326 168.081 Q 239.019 166.114 245.748 166.114 Q 252.58 166.114 259.826 166.217 Q 267.072 166.321 273.283 166.321 Z" transform="matrix(0.999532, 0.030595, -0.030595, 0.999532, -421.680756, 32.366848)" style="fill: rgb(245, 245, 244); white-space: pre;"/>
  <path d="M 288.701 112.286 L 337.043 112.286 L 337.043 205.139 L 355.158 205.139 L 362.611 194.477 L 362.611 166.114 L 418.096 166.114 L 418.096 194.477 L 398.842 194.477 L 378.863 217.561 L 399.256 242.198 L 417.06 242.198 L 417.06 273.356 L 387.973 273.356 L 353.191 227.395 L 337.043 227.395 L 337.043 244.993 L 348.016 244.993 L 348.016 273.356 L 288.701 273.356 L 288.701 244.993 L 305.264 244.993 L 305.264 140.649 L 288.701 140.649 Z" transform="matrix(0.999532, 0.030595, -0.030595, 0.999532, -421.680756, 32.366848)" style="fill: rgb(245, 245, 244); white-space: pre;"/>
  <path d="M 509.393 198.928 Q 509.393 196.444 507.789 194.167 Q 506.184 191.889 503.079 190.181 Q 499.973 188.473 495.47 187.438 Q 490.967 186.403 485.274 186.403 Q 483.1 186.403 480.616 186.765 Q 478.132 187.127 476.009 188.059 Q 473.887 188.991 472.49 190.595 Q 471.092 192.2 471.092 194.684 Q 471.092 195.926 471.455 197.065 Q 471.817 198.204 472.852 199.239 Q 473.887 200.274 475.699 201.154 Q 477.51 202.034 480.409 202.551 L 499.87 206.381 Q 510.428 208.452 517.571 211.557 Q 524.714 214.663 529.061 218.803 Q 533.409 222.944 535.324 228.016 Q 537.239 233.088 537.239 238.989 Q 537.239 248.202 532.943 255.137 Q 528.647 262.073 521.66 266.679 Q 514.673 271.286 505.926 273.615 Q 497.178 275.944 488.276 275.944 Q 482.479 275.944 477.769 275.219 Q 473.059 274.495 469.281 273.252 Q 465.503 272.01 462.552 270.302 Q 459.602 268.594 457.118 266.524 L 438.382 266.524 L 438.382 237.747 L 467.676 237.747 L 467.676 238.368 Q 467.78 241.37 469.54 243.595 Q 471.3 245.821 474.146 247.374 Q 476.993 248.926 480.616 249.703 Q 484.239 250.479 488.276 250.479 Q 497.592 250.479 501.837 248.046 Q 506.081 245.614 506.081 241.784 Q 506.081 238.782 504.01 236.66 Q 501.94 234.538 496.661 233.295 L 476.786 229.051 Q 458.05 225.428 448.526 216.992 Q 439.003 208.555 439.003 195.305 Q 439.003 187.542 442.626 181.175 Q 446.249 174.809 452.46 170.306 Q 458.671 165.803 467.004 163.319 Q 475.337 160.835 484.86 160.835 Q 491.382 160.835 496.454 161.611 Q 501.526 162.387 505.563 163.629 Q 509.6 164.872 512.654 166.58 Q 515.708 168.288 518.089 170.151 L 536.1 170.151 L 536.1 198.928 L 509.393 198.928 Z" transform="matrix(0.999532, 0.030595, -0.030595, 0.999532, -421.680756, 32.366848)" style="fill: rgb(245, 245, 244); white-space: pre;"/>
  <path d="M 644.063 166.114 L 663.627 166.114 L 663.627 193.235 L 644.063 193.235 L 644.063 244.993 L 663.834 244.993 L 663.834 273.356 L 597.274 273.356 L 597.274 244.993 L 613.319 244.993 L 613.319 193.235 L 597.067 193.235 L 597.067 166.114 L 613.319 166.114 L 613.319 148.309 Q 613.319 138.889 616.631 131.747 Q 619.944 124.604 625.482 119.739 Q 631.02 114.874 638.266 112.389 Q 645.512 109.905 653.483 109.905 Q 659.383 109.905 664.041 110.785 Q 668.699 111.665 672.219 113.01 Q 675.739 114.356 678.171 115.909 Q 680.604 117.461 682.053 118.807 L 670.149 140.649 Q 667.768 138.889 664.766 137.854 Q 661.764 136.819 657.416 136.819 Q 654.621 136.819 652.189 137.751 Q 649.756 138.682 647.945 140.442 Q 646.133 142.202 645.098 144.841 Q 644.063 147.481 644.063 151.001 Z" transform="matrix(0.999532, 0.030595, -0.030595, 0.999532, -421.680756, 32.366848)" style="fill: rgb(245, 245, 244); white-space: pre;"/>
  <path d="M 681.018 219.321 Q 681.018 207.624 685.262 197.376 Q 689.506 187.127 697.063 179.467 Q 704.619 171.807 715.074 167.356 Q 725.529 162.905 738.055 162.905 Q 750.58 162.905 761.087 167.356 Q 771.594 171.807 779.151 179.467 Q 786.707 187.127 790.9 197.376 Q 795.092 207.624 795.092 219.321 Q 795.092 231.018 791.003 241.318 Q 786.914 251.618 779.409 259.33 Q 771.904 267.042 761.398 271.493 Q 750.891 275.944 738.055 275.944 Q 725.115 275.944 714.609 271.493 Q 704.102 267.042 696.649 259.381 Q 689.195 251.721 685.107 241.421 Q 681.018 231.122 681.018 219.321 Z M 711.969 219.321 Q 711.969 225.428 714.039 230.552 Q 716.109 235.676 719.681 239.403 Q 723.252 243.129 727.962 245.2 Q 732.672 247.27 738.055 247.27 Q 743.541 247.27 748.251 245.251 Q 752.961 243.233 756.429 239.506 Q 759.897 235.78 761.863 230.656 Q 763.83 225.532 763.83 219.321 Q 763.83 212.903 761.863 207.727 Q 759.897 202.551 756.429 198.928 Q 752.961 195.305 748.251 193.39 Q 743.541 191.475 738.055 191.579 Q 732.672 191.475 727.962 193.39 Q 723.252 195.305 719.681 198.928 Q 716.109 202.551 714.039 207.727 Q 711.969 212.903 711.969 219.321 Z" transform="matrix(0.999532, 0.030595, -0.030595, 0.999532, -421.680756, 32.366848)" style="fill: rgb(245, 245, 244); white-space: pre;"/>
  <path d="M 908.026 205.139 L 878.938 205.139 L 878.938 194.063 Q 874.694 194.063 871.175 194.632 Q 867.655 195.202 865.015 196.547 Q 862.376 197.893 860.564 200.274 Q 858.753 202.655 858.028 206.174 L 858.028 244.993 L 879.87 244.993 L 879.87 273.356 L 809.893 273.356 L 809.893 244.993 L 825.938 244.993 L 825.938 194.477 L 810.1 194.477 L 810.1 166.114 L 857.821 166.114 L 857.821 173.67 Q 862.376 170.047 868.069 168.081 Q 873.763 166.114 880.491 166.114 Q 887.323 166.114 894.569 166.217 Q 901.815 166.321 908.026 166.321 Z" transform="matrix(0.999532, 0.030595, -0.030595, 0.999532, -421.680756, 32.366848)" style="fill: rgb(245, 245, 244); white-space: pre;"/>
  <path d="M 1047.659 267.766 Q 1041.862 271.079 1036.065 272.528 Q 1030.269 273.977 1024.265 273.977 Q 1011.843 273.977 1001.388 269.733 Q 990.933 265.489 983.324 257.984 Q 975.716 250.479 971.472 240.231 Q 967.228 229.983 967.228 217.975 Q 967.228 206.692 971.316 196.703 Q 975.405 186.713 982.755 179.209 Q 990.105 171.704 1000.353 167.356 Q 1010.601 163.008 1022.608 162.905 Q 1029.958 163.008 1036.117 164.458 Q 1042.276 165.907 1047.659 168.391 L 1047.659 166.114 L 1079.024 166.114 L 1079.024 268.905 Q 1079.024 282.465 1074.366 292.351 Q 1069.708 302.237 1061.893 308.707 Q 1054.077 315.176 1043.726 318.334 Q 1033.374 321.491 1021.987 321.491 Q 1007.909 321.491 995.953 317.661 Q 983.997 313.831 974.681 307.309 L 987.62 284.329 Q 994.763 288.883 1003.148 291.523 Q 1011.532 294.163 1021.78 294.163 Q 1027.37 294.163 1032.08 292.92 Q 1036.79 291.678 1040.258 288.728 Q 1043.726 285.778 1045.692 280.809 Q 1047.659 275.84 1047.659 268.284 Z M 1025.3 245.303 Q 1032.546 245.303 1038.395 241.628 Q 1044.243 237.954 1047.659 231.95 L 1047.866 205.864 Q 1044.347 199.342 1038.239 195.512 Q 1032.132 191.682 1024.989 191.579 Q 1019.917 191.682 1015.052 193.597 Q 1010.187 195.512 1006.615 199.032 Q 1003.044 202.551 1000.974 207.365 Q 998.903 212.178 998.903 218.079 Q 998.903 224.29 1000.974 229.362 Q 1003.044 234.434 1006.564 237.954 Q 1010.083 241.473 1014.897 243.388 Q 1019.71 245.303 1025.3 245.303 Z" transform="matrix(0.999532, 0.030595, -0.030595, 0.999532, -421.680756, 32.366848)" style="fill: rgb(245, 245, 244); white-space: pre;"/>
  <path d="M 1101.28 219.321 Q 1101.28 207.624 1105.525 197.376 Q 1109.769 187.127 1117.325 179.467 Q 1124.882 171.807 1135.337 167.356 Q 1145.792 162.905 1158.318 162.905 Q 1170.843 162.905 1181.35 167.356 Q 1191.857 171.807 1199.413 179.467 Q 1206.97 187.127 1211.162 197.376 Q 1215.355 207.624 1215.355 219.321 Q 1215.355 231.018 1211.266 241.318 Q 1207.177 251.618 1199.672 259.33 Q 1192.167 267.042 1181.66 271.493 Q 1171.153 275.944 1158.318 275.944 Q 1145.378 275.944 1134.871 271.493 Q 1124.364 267.042 1116.911 259.381 Q 1109.458 251.721 1105.369 241.421 Q 1101.28 231.122 1101.28 219.321 Z M 1132.232 219.321 Q 1132.232 225.428 1134.302 230.552 Q 1136.372 235.676 1139.943 239.403 Q 1143.515 243.129 1148.225 245.2 Q 1152.935 247.27 1158.318 247.27 Q 1163.804 247.27 1168.514 245.251 Q 1173.224 243.233 1176.692 239.506 Q 1180.159 235.78 1182.126 230.656 Q 1184.093 225.532 1184.093 219.321 Q 1184.093 212.903 1182.126 207.727 Q 1180.159 202.551 1176.692 198.928 Q 1173.224 195.305 1168.514 193.39 Q 1163.804 191.475 1158.318 191.579 Q 1152.935 191.475 1148.225 193.39 Q 1143.515 195.305 1139.943 198.928 Q 1136.372 202.551 1134.302 207.727 Q 1132.232 212.903 1132.232 219.321 Z" transform="matrix(0.999532, 0.030595, -0.030595, 0.999532, -421.680756, 32.366848)" style="fill: rgb(245, 245, 244); white-space: pre;"/>
  <path d="M 1230.156 219.321 Q 1230.156 207.624 1234.4 197.376 Q 1238.644 187.127 1246.201 179.467 Q 1253.758 171.807 1264.213 167.356 Q 1274.668 162.905 1287.193 162.905 Q 1299.719 162.905 1310.225 167.356 Q 1320.732 171.807 1328.289 179.467 Q 1335.846 187.127 1340.038 197.376 Q 1344.23 207.624 1344.23 219.321 Q 1344.23 231.018 1340.141 241.318 Q 1336.053 251.618 1328.548 259.33 Q 1321.043 267.042 1310.536 271.493 Q 1300.029 275.944 1287.193 275.944 Q 1274.254 275.944 1263.747 271.493 Q 1253.24 267.042 1245.787 259.381 Q 1238.334 251.721 1234.245 241.421 Q 1230.156 231.122 1230.156 219.321 Z M 1261.107 219.321 Q 1261.107 225.428 1263.178 230.552 Q 1265.248 235.676 1268.819 239.403 Q 1272.391 243.129 1277.1 245.2 Q 1281.81 247.27 1287.193 247.27 Q 1292.68 247.27 1297.39 245.251 Q 1302.099 243.233 1305.567 239.506 Q 1309.035 235.78 1311.002 230.656 Q 1312.969 225.532 1312.969 219.321 Q 1312.969 212.903 1311.002 207.727 Q 1309.035 202.551 1305.567 198.928 Q 1302.099 195.305 1297.39 193.39 Q 1292.68 191.475 1287.193 191.579 Q 1281.81 191.475 1277.1 193.39 Q 1272.391 195.305 1268.819 198.928 Q 1265.248 202.551 1263.178 207.727 Q 1261.107 212.903 1261.107 219.321 Z" transform="matrix(0.999532, 0.030595, -0.030595, 0.999532, -421.680756, 32.366848)" style="fill: rgb(245, 245, 244); white-space: pre;"/>
  <path d="M 1423.315 112.286 L 1470.208 112.286 L 1470.208 244.993 L 1491.118 244.993 L 1491.118 273.356 L 1438.325 273.356 L 1438.325 269.215 Q 1432.735 272.114 1426.886 273.77 Q 1421.038 275.426 1415.034 275.426 Q 1402.715 275.426 1392.416 271.027 Q 1382.116 266.627 1374.714 258.967 Q 1367.313 251.307 1363.172 241.007 Q 1359.032 230.708 1359.032 218.907 Q 1359.032 207.106 1363.121 196.91 Q 1367.21 186.713 1374.507 179.157 Q 1381.805 171.6 1392.002 167.252 Q 1402.198 162.905 1414.413 162.905 Q 1421.141 162.905 1427.042 164.199 Q 1432.942 165.493 1438.325 167.874 L 1438.325 140.649 L 1423.315 140.649 Z M 1416.794 246.856 Q 1423.626 246.649 1429.164 243.336 Q 1434.702 240.024 1438.325 234.641 L 1438.325 203.069 Q 1434.702 197.583 1428.957 194.529 Q 1423.212 191.475 1416.794 191.579 Q 1411.411 191.475 1406.701 193.442 Q 1401.991 195.409 1398.42 199.032 Q 1394.848 202.655 1392.778 207.727 Q 1390.708 212.799 1390.708 219.217 Q 1390.708 225.532 1392.778 230.656 Q 1394.848 235.78 1398.42 239.351 Q 1401.991 242.922 1406.701 244.786 Q 1411.411 246.649 1416.794 246.856 Z" transform="matrix(0.999532, 0.030595, -0.030595, 0.999532, -421.680756, 32.366848)" style="fill: rgb(245, 245, 244); white-space: pre;"/>
</svg>