<?xml version="1.0" encoding="utf-8"?>
<svg viewBox="0 0 500 500" xmlns="http://www.w3.org/2000/svg">
  <rect style="fill-rule: nonzero; stroke-miterlimit: 6; paint-order: stroke; stroke-width: 65px; stroke: rgb(61, 59, 59); fill: rgb(245, 245, 244);" x="29.481" y="29.481" width="441.039" height="441.039" rx="25" ry="25">
    <title>Works for Good Logo</title>
  </rect>
  <path d="M 53.888 219.746 L 107.935 219.746 L 107.935 247.119 L 96.246 247.119 L 107.236 283.983 L 128.515 219.746 L 157.786 219.746 L 179.265 287.28 L 192.452 247.119 L 181.363 247.119 L 181.363 219.746 L 235.41 219.746 L 235.41 247.119 L 221.524 247.119 L 193.851 323.645 L 163.98 323.645 L 142.301 257.609 L 120.223 323.645 L 91.151 323.645 L 65.476 247.119 L 53.888 247.119 Z" style="fill: rgb(51, 51, 51); text-transform: lowercase; white-space: pre;"/>
  <path d="M 292.354 219.746 L 311.236 219.746 L 311.236 245.921 L 292.354 245.921 L 292.354 295.872 L 311.436 295.872 L 311.436 323.245 L 247.199 323.245 L 247.199 295.872 L 262.683 295.872 L 262.683 245.921 L 246.999 245.921 L 246.999 219.746 L 262.683 219.746 L 262.683 202.563 Q 262.683 193.472 265.88 186.579 Q 269.077 179.685 274.422 174.99 Q 279.767 170.295 286.76 167.897 Q 293.753 165.499 301.446 165.499 Q 307.14 165.499 311.636 166.348 Q 316.131 167.198 319.528 168.496 Q 322.925 169.795 325.272 171.294 Q 327.62 172.792 329.019 174.091 L 317.53 195.17 Q 315.232 193.472 312.335 192.473 Q 309.438 191.474 305.242 191.474 Q 302.545 191.474 300.197 192.373 Q 297.849 193.272 296.101 194.97 Q 294.353 196.669 293.354 199.216 Q 292.354 201.764 292.354 205.16 Z" style="fill: rgb(51, 51, 51); text-transform: lowercase; white-space: pre;"/>
  <path d="M 405.64 317.85 Q 400.045 321.047 394.451 322.446 Q 388.856 323.844 383.062 323.844 Q 371.074 323.844 360.984 319.748 Q 350.894 315.652 343.551 308.409 Q 336.208 301.167 332.112 291.276 Q 328.016 281.386 328.016 269.797 Q 328.016 258.908 331.962 249.267 Q 335.908 239.627 343.001 232.384 Q 350.094 225.141 359.985 220.945 Q 369.875 216.749 381.464 216.649 Q 388.557 216.749 394.501 218.148 Q 400.445 219.546 405.64 221.944 L 405.64 219.746 L 435.91 219.746 L 435.91 318.949 Q 435.91 332.036 431.415 341.577 Q 426.919 351.118 419.377 357.362 Q 411.834 363.606 401.844 366.653 Q 391.854 369.7 380.864 369.7 Q 367.278 369.7 355.739 366.003 Q 344.2 362.307 335.209 356.013 L 347.697 333.835 Q 354.59 338.23 362.682 340.778 Q 370.774 343.325 380.664 343.325 Q 386.059 343.325 390.605 342.127 Q 395.15 340.928 398.497 338.08 Q 401.844 335.233 403.742 330.438 Q 405.64 325.643 405.64 318.35 Z M 384.061 296.171 Q 391.054 296.171 396.699 292.625 Q 402.343 289.078 405.64 283.284 L 405.84 258.109 Q 402.443 251.815 396.549 248.118 Q 390.655 244.422 383.761 244.322 Q 378.866 244.422 374.171 246.27 Q 369.475 248.118 366.029 251.515 Q 362.582 254.912 360.584 259.557 Q 358.586 264.203 358.586 269.897 Q 358.586 275.891 360.584 280.786 Q 362.582 285.682 365.979 289.078 Q 369.375 292.475 374.021 294.323 Q 378.666 296.171 384.061 296.171 Z" style="fill: rgb(51, 51, 51); text-transform: lowercase; white-space: pre;"/>
</svg>