<?xml version="1.0" encoding="utf-8"?>
<svg viewBox="-524.893 -31.318 1441.6 511.284" xmlns="http://www.w3.org/2000/svg">
  <rect style="fill-rule: nonzero; stroke-miterlimit: 6; paint-order: stroke; stroke-width: 65px; stroke: rgb(61, 59, 59); fill: rgb(245, 245, 244);" x="-486.352" y="3.805" width="1364.517" height="441.039" rx="25" ry="25">
    <title>Works for Good Logo</title>
  </rect>
  <path d="M 11.881 195.316 L 62.599 195.316 L 62.599 221.004 L 51.631 221.004 L 61.943 255.597 L 81.912 195.316 L 109.381 195.316 L 129.537 258.691 L 141.912 221.004 L 131.506 221.004 L 131.506 195.316 L 182.224 195.316 L 182.224 221.004 L 169.193 221.004 L 143.224 292.816 L 115.193 292.816 L 94.849 230.847 L 74.131 292.816 L 46.849 292.816 L 22.756 221.004 L 11.881 221.004 Z" style="fill: rgb(51, 51, 51); white-space: pre;"/>
  <path d="M 235.653 195.316 L 253.371 195.316 L 253.371 219.879 L 235.653 219.879 L 235.653 266.754 L 253.559 266.754 L 253.559 292.441 L 193.278 292.441 L 193.278 266.754 L 207.809 266.754 L 207.809 219.879 L 193.09 219.879 L 193.09 195.316 L 207.809 195.316 L 207.809 179.191 Q 207.809 170.66 210.809 164.191 Q 213.809 157.722 218.824 153.316 Q 223.84 148.91 230.403 146.66 Q 236.965 144.41 244.184 144.41 Q 249.528 144.41 253.746 145.207 Q 257.965 146.004 261.153 147.222 Q 264.34 148.441 266.543 149.847 Q 268.746 151.254 270.059 152.472 L 259.278 172.254 Q 257.121 170.66 254.403 169.722 Q 251.684 168.785 247.746 168.785 Q 245.215 168.785 243.012 169.629 Q 240.809 170.472 239.168 172.066 Q 237.528 173.66 236.59 176.05 Q 235.653 178.441 235.653 181.629 Z" style="fill: rgb(51, 51, 51); white-space: pre;"/>
  <path d="M 341.965 287.379 Q 336.715 290.379 331.465 291.691 Q 326.215 293.004 320.778 293.004 Q 309.528 293.004 300.059 289.16 Q 290.59 285.316 283.7 278.519 Q 276.809 271.722 272.965 262.441 Q 269.122 253.16 269.122 242.285 Q 269.122 232.066 272.825 223.019 Q 276.528 213.972 283.184 207.175 Q 289.84 200.379 299.122 196.441 Q 308.403 192.504 319.278 192.41 Q 325.934 192.504 331.512 193.816 Q 337.09 195.129 341.965 197.379 L 341.965 195.316 L 370.372 195.316 L 370.372 288.41 Q 370.372 300.691 366.153 309.644 Q 361.934 318.597 354.856 324.457 Q 347.778 330.316 338.403 333.175 Q 329.028 336.035 318.715 336.035 Q 305.965 336.035 295.137 332.566 Q 284.309 329.097 275.872 323.191 L 287.59 302.379 Q 294.059 306.504 301.653 308.894 Q 309.247 311.285 318.528 311.285 Q 323.59 311.285 327.856 310.16 Q 332.122 309.035 335.262 306.363 Q 338.403 303.691 340.184 299.191 Q 341.965 294.691 341.965 287.847 Z M 321.715 267.035 Q 328.278 267.035 333.575 263.707 Q 338.872 260.379 341.965 254.941 L 342.153 231.316 Q 338.965 225.41 333.434 221.941 Q 327.903 218.472 321.434 218.379 Q 316.84 218.472 312.434 220.207 Q 308.028 221.941 304.794 225.129 Q 301.559 228.316 299.684 232.675 Q 297.809 237.035 297.809 242.379 Q 297.809 248.004 299.684 252.597 Q 301.559 257.191 304.747 260.379 Q 307.934 263.566 312.294 265.3 Q 316.653 267.035 321.715 267.035 Z" style="fill: rgb(51, 51, 51); white-space: pre;"/>
</svg>