<?xml version="1.0" encoding="utf-8"?>
<svg viewBox="-201.3 -32.208 1921.984 574.078" xmlns="http://www.w3.org/2000/svg">
  <rect style="fill-rule: nonzero; stroke: rgb(61, 59, 59); stroke-miterlimit: 6; paint-order: stroke; fill: rgb(255, 255, 255); stroke-width: 65px;" x="-154.105" y="29.481" width="1819.569" height="441.039" rx="25" ry="25" transform="matrix(0.999579, 0.029029, -0.029029, 0.999579, 11.588395, -17.000847)">
    <title>Works for Good Logo</title>
  </rect>
  <path d="M -34.417 224.605 L 19.63 224.605 L 19.63 251.978 L 7.942 251.978 L 18.931 288.842 L 40.21 224.605 L 69.482 224.605 L 90.961 292.139 L 104.148 251.978 L 93.059 251.978 L 93.059 224.605 L 147.106 224.605 L 147.106 251.978 L 133.219 251.978 L 105.546 328.504 L 75.676 328.504 L 53.997 262.468 L 31.918 328.504 L 2.847 328.504 L -22.828 251.978 L -34.417 251.978 Z" style="fill: rgb(51, 51, 51); text-transform: lowercase; white-space: pre;"/>
  <path d="M 158.286 275.955 Q 158.286 264.666 162.382 254.776 Q 166.478 244.885 173.771 237.493 Q 181.064 230.1 191.154 225.804 Q 201.244 221.508 213.332 221.508 Q 225.42 221.508 235.56 225.804 Q 245.7 230.1 252.993 237.493 Q 260.286 244.885 264.332 254.776 Q 268.378 264.666 268.378 275.955 Q 268.378 287.244 264.432 297.184 Q 260.486 307.125 253.243 314.567 Q 246 322.01 235.86 326.306 Q 225.72 330.602 213.332 330.602 Q 200.844 330.602 190.704 326.306 Q 180.564 322.01 173.371 314.617 Q 166.178 307.224 162.232 297.284 Q 158.286 287.344 158.286 275.955 Z M 188.157 275.955 Q 188.157 281.849 190.155 286.794 Q 192.153 291.74 195.599 295.336 Q 199.046 298.933 203.592 300.931 Q 208.137 302.929 213.332 302.929 Q 218.627 302.929 223.172 300.981 Q 227.718 299.032 231.065 295.436 Q 234.412 291.839 236.31 286.894 Q 238.208 281.949 238.208 275.955 Q 238.208 269.761 236.31 264.766 Q 234.412 259.771 231.065 256.274 Q 227.718 252.778 223.172 250.929 Q 218.627 249.081 213.332 249.181 Q 208.137 249.081 203.592 250.929 Q 199.046 252.778 195.599 256.274 Q 192.153 259.771 190.155 264.766 Q 188.157 269.761 188.157 275.955 Z" style="fill: rgb(51, 51, 51); text-transform: lowercase; white-space: pre;"/>
  <path d="M 377.369 262.268 L 349.297 262.268 L 349.297 251.579 Q 345.201 251.579 341.804 252.128 Q 338.408 252.678 335.86 253.976 Q 333.313 255.275 331.564 257.573 Q 329.816 259.871 329.117 263.267 L 329.117 300.731 L 350.196 300.731 L 350.196 328.104 L 282.662 328.104 L 282.662 300.731 L 298.147 300.731 L 298.147 251.978 L 282.862 251.978 L 282.862 224.605 L 328.917 224.605 L 328.917 231.898 Q 333.313 228.401 338.807 226.503 Q 344.302 224.605 350.795 224.605 Q 357.389 224.605 364.382 224.705 Q 371.375 224.805 377.369 224.805 Z" style="fill: rgb(51, 51, 51); text-transform: lowercase; white-space: pre;"/>
  <path d="M 392.25 172.656 L 438.904 172.656 L 438.904 262.268 L 456.387 262.268 L 463.58 251.978 L 463.58 224.605 L 517.128 224.605 L 517.128 251.978 L 498.546 251.978 L 479.265 274.257 L 498.945 298.033 L 516.129 298.033 L 516.129 328.104 L 488.056 328.104 L 454.489 283.747 L 438.904 283.747 L 438.904 300.731 L 449.494 300.731 L 449.494 328.104 L 392.25 328.104 L 392.25 300.731 L 408.234 300.731 L 408.234 200.029 L 392.25 200.029 Z" style="fill: rgb(51, 51, 51); text-transform: lowercase; white-space: pre;"/>
  <path d="M 605.239 256.274 Q 605.239 253.877 603.69 251.679 Q 602.142 249.481 599.144 247.832 Q 596.147 246.184 591.802 245.185 Q 587.456 244.186 581.961 244.186 Q 579.863 244.186 577.466 244.536 Q 575.068 244.885 573.02 245.784 Q 570.972 246.684 569.623 248.232 Q 568.275 249.781 568.275 252.178 Q 568.275 253.377 568.624 254.476 Q 568.974 255.575 569.973 256.574 Q 570.972 257.573 572.72 258.422 Q 574.469 259.271 577.266 259.771 L 596.047 263.467 Q 606.238 265.465 613.131 268.462 Q 620.024 271.459 624.22 275.455 Q 628.416 279.452 630.264 284.347 Q 632.112 289.242 632.112 294.936 Q 632.112 303.828 627.966 310.521 Q 623.82 317.215 617.077 321.66 Q 610.334 326.106 601.892 328.354 Q 593.45 330.602 584.858 330.602 Q 579.264 330.602 574.718 329.902 Q 570.173 329.203 566.526 328.004 Q 562.88 326.805 560.033 325.157 Q 557.185 323.508 554.788 321.51 L 536.706 321.51 L 536.706 293.738 L 564.978 293.738 L 564.978 294.337 Q 565.078 297.234 566.776 299.382 Q 568.474 301.53 571.222 303.029 Q 573.969 304.527 577.466 305.276 Q 580.962 306.026 584.858 306.026 Q 593.85 306.026 597.946 303.678 Q 602.042 301.33 602.042 297.634 Q 602.042 294.737 600.044 292.689 Q 598.046 290.641 592.951 289.442 L 573.769 285.346 Q 555.687 281.849 546.496 273.707 Q 537.305 265.565 537.305 252.778 Q 537.305 245.285 540.802 239.141 Q 544.298 232.997 550.292 228.651 Q 556.286 224.305 564.329 221.908 Q 572.371 219.51 581.562 219.51 Q 587.856 219.51 592.751 220.259 Q 597.646 221.009 601.542 222.208 Q 605.438 223.406 608.385 225.055 Q 611.333 226.703 613.63 228.501 L 631.013 228.501 L 631.013 256.274 L 605.239 256.274 Z" style="fill: rgb(51, 51, 51); text-transform: lowercase; white-space: pre;"/>
  <path d="M 735.213 224.605 L 754.094 224.605 L 754.094 250.78 L 735.213 250.78 L 735.213 300.731 L 754.294 300.731 L 754.294 328.104 L 690.057 328.104 L 690.057 300.731 L 705.542 300.731 L 705.542 250.78 L 689.857 250.78 L 689.857 224.605 L 705.542 224.605 L 705.542 207.422 Q 705.542 198.331 708.738 191.438 Q 711.935 184.544 717.28 179.849 Q 722.625 175.154 729.618 172.756 Q 736.611 170.358 744.304 170.358 Q 749.998 170.358 754.494 171.207 Q 758.989 172.057 762.386 173.355 Q 765.783 174.654 768.13 176.153 Q 770.478 177.651 771.877 178.95 L 760.388 200.029 Q 758.09 198.331 755.193 197.332 Q 752.296 196.333 748.1 196.333 Q 745.403 196.333 743.055 197.232 Q 740.707 198.131 738.959 199.829 Q 737.211 201.528 736.212 204.075 Q 735.213 206.623 735.213 210.019 Z" style="fill: rgb(51, 51, 51); text-transform: lowercase; white-space: pre;"/>
  <path d="M 770.875 275.955 Q 770.875 264.666 774.971 254.776 Q 779.067 244.885 786.36 237.493 Q 793.652 230.1 803.743 225.804 Q 813.833 221.508 825.921 221.508 Q 838.009 221.508 848.149 225.804 Q 858.289 230.1 865.582 237.493 Q 872.875 244.885 876.921 254.776 Q 880.967 264.666 880.967 275.955 Q 880.967 287.244 877.021 297.184 Q 873.075 307.125 865.832 314.567 Q 858.589 322.01 848.449 326.306 Q 838.309 330.602 825.921 330.602 Q 813.433 330.602 803.293 326.306 Q 793.153 322.01 785.96 314.617 Q 778.767 307.224 774.821 297.284 Q 770.875 287.344 770.875 275.955 Z M 800.745 275.955 Q 800.745 281.849 802.744 286.794 Q 804.742 291.74 808.188 295.336 Q 811.635 298.933 816.18 300.931 Q 820.726 302.929 825.921 302.929 Q 831.216 302.929 835.761 300.981 Q 840.307 299.032 843.654 295.436 Q 847 291.839 848.898 286.894 Q 850.797 281.949 850.797 275.955 Q 850.797 269.761 848.898 264.766 Q 847 259.771 843.654 256.274 Q 840.307 252.778 835.761 250.929 Q 831.216 249.081 825.921 249.181 Q 820.726 249.081 816.18 250.929 Q 811.635 252.778 808.188 256.274 Q 804.742 259.771 802.744 264.766 Q 800.745 269.761 800.745 275.955 Z" style="fill: rgb(51, 51, 51); text-transform: lowercase; white-space: pre;"/>
  <path d="M 989.958 262.268 L 961.886 262.268 L 961.886 251.579 Q 957.79 251.579 954.393 252.128 Q 950.996 252.678 948.449 253.976 Q 945.901 255.275 944.153 257.573 Q 942.405 259.871 941.705 263.267 L 941.705 300.731 L 962.785 300.731 L 962.785 328.104 L 895.251 328.104 L 895.251 300.731 L 910.736 300.731 L 910.736 251.978 L 895.451 251.978 L 895.451 224.605 L 941.506 224.605 L 941.506 231.898 Q 945.901 228.401 951.396 226.503 Q 956.891 224.605 963.384 224.605 Q 969.978 224.605 976.971 224.705 Q 983.964 224.805 989.958 224.805 Z" style="fill: rgb(51, 51, 51); text-transform: lowercase; white-space: pre;"/>
  <path d="M 1124.72 322.709 Q 1119.125 325.906 1113.531 327.305 Q 1107.936 328.703 1102.142 328.703 Q 1090.154 328.703 1080.064 324.607 Q 1069.973 320.511 1062.631 313.269 Q 1055.288 306.026 1051.192 296.135 Q 1047.096 286.245 1047.096 274.656 Q 1047.096 263.767 1051.042 254.126 Q 1054.988 244.486 1062.081 237.243 Q 1069.174 230 1079.065 225.804 Q 1088.955 221.608 1100.544 221.508 Q 1107.637 221.608 1113.581 223.007 Q 1119.525 224.405 1124.72 226.803 L 1124.72 224.605 L 1154.99 224.605 L 1154.99 323.808 Q 1154.99 336.895 1150.495 346.436 Q 1145.999 355.977 1138.456 362.221 Q 1130.914 368.465 1120.924 371.512 Q 1110.933 374.559 1099.944 374.559 Q 1086.357 374.559 1074.819 370.862 Q 1063.28 367.166 1054.289 360.872 L 1066.777 338.694 Q 1073.67 343.089 1081.762 345.637 Q 1089.854 348.184 1099.744 348.184 Q 1105.139 348.184 1109.685 346.986 Q 1114.23 345.787 1117.577 342.94 Q 1120.924 340.092 1122.822 335.297 Q 1124.72 330.502 1124.72 323.209 Z M 1103.141 301.03 Q 1110.134 301.03 1115.779 297.484 Q 1121.423 293.937 1124.72 288.143 L 1124.92 262.968 Q 1121.523 256.674 1115.629 252.977 Q 1109.735 249.281 1102.841 249.181 Q 1097.946 249.281 1093.251 251.129 Q 1088.555 252.977 1085.109 256.374 Q 1081.662 259.771 1079.664 264.416 Q 1077.666 269.062 1077.666 274.756 Q 1077.666 280.75 1079.664 285.646 Q 1081.662 290.541 1085.059 293.937 Q 1088.455 297.334 1093.101 299.182 Q 1097.746 301.03 1103.141 301.03 Z" style="fill: rgb(51, 51, 51); text-transform: lowercase; white-space: pre;"/>
  <path d="M 1176.462 275.955 Q 1176.462 264.666 1180.558 254.776 Q 1184.654 244.885 1191.946 237.493 Q 1199.239 230.1 1209.329 225.804 Q 1219.42 221.508 1231.508 221.508 Q 1243.596 221.508 1253.736 225.804 Q 1263.876 230.1 1271.169 237.493 Q 1278.462 244.885 1282.508 254.776 Q 1286.554 264.666 1286.554 275.955 Q 1286.554 287.244 1282.608 297.184 Q 1278.662 307.125 1271.419 314.567 Q 1264.176 322.01 1254.036 326.306 Q 1243.896 330.602 1231.508 330.602 Q 1219.02 330.602 1208.88 326.306 Q 1198.74 322.01 1191.547 314.617 Q 1184.354 307.224 1180.408 297.284 Q 1176.462 287.344 1176.462 275.955 Z M 1206.332 275.955 Q 1206.332 281.849 1208.33 286.794 Q 1210.328 291.74 1213.775 295.336 Q 1217.222 298.933 1221.767 300.931 Q 1226.313 302.929 1231.508 302.929 Q 1236.803 302.929 1241.348 300.981 Q 1245.894 299.032 1249.24 295.436 Q 1252.587 291.839 1254.485 286.894 Q 1256.383 281.949 1256.383 275.955 Q 1256.383 269.761 1254.485 264.766 Q 1252.587 259.771 1249.24 256.274 Q 1245.894 252.778 1241.348 250.929 Q 1236.803 249.081 1231.508 249.181 Q 1226.313 249.081 1221.767 250.929 Q 1217.222 252.778 1213.775 256.274 Q 1210.328 259.771 1208.33 264.766 Q 1206.332 269.761 1206.332 275.955 Z" style="fill: rgb(51, 51, 51); text-transform: lowercase; white-space: pre;"/>
  <path d="M 1300.838 275.955 Q 1300.838 264.666 1304.934 254.776 Q 1309.03 244.885 1316.322 237.493 Q 1323.615 230.1 1333.705 225.804 Q 1343.796 221.508 1355.884 221.508 Q 1367.972 221.508 1378.112 225.804 Q 1388.252 230.1 1395.545 237.493 Q 1402.838 244.885 1406.884 254.776 Q 1410.93 264.666 1410.93 275.955 Q 1410.93 287.244 1406.984 297.184 Q 1403.038 307.125 1395.795 314.567 Q 1388.552 322.01 1378.412 326.306 Q 1368.272 330.602 1355.884 330.602 Q 1343.396 330.602 1333.256 326.306 Q 1323.116 322.01 1315.923 314.617 Q 1308.73 307.224 1304.784 297.284 Q 1300.838 287.344 1300.838 275.955 Z M 1330.708 275.955 Q 1330.708 281.849 1332.706 286.794 Q 1334.705 291.74 1338.151 295.336 Q 1341.598 298.933 1346.143 300.931 Q 1350.689 302.929 1355.884 302.929 Q 1361.179 302.929 1365.724 300.981 Q 1370.27 299.032 1373.616 295.436 Q 1376.963 291.839 1378.861 286.894 Q 1380.759 281.949 1380.759 275.955 Q 1380.759 269.761 1378.861 264.766 Q 1376.963 259.771 1373.616 256.274 Q 1370.27 252.778 1365.724 250.929 Q 1361.179 249.081 1355.884 249.181 Q 1350.689 249.081 1346.143 250.929 Q 1341.598 252.778 1338.151 256.274 Q 1334.705 259.771 1332.706 264.766 Q 1330.708 269.761 1330.708 275.955 Z" style="fill: rgb(51, 51, 51); text-transform: lowercase; white-space: pre;"/>
  <path d="M 1487.253 172.656 L 1532.509 172.656 L 1532.509 300.731 L 1552.689 300.731 L 1552.689 328.104 L 1501.739 328.104 L 1501.739 324.108 Q 1496.344 326.905 1490.7 328.504 Q 1485.055 330.102 1479.261 330.102 Q 1467.373 330.102 1457.432 325.856 Q 1447.492 321.61 1440.349 314.218 Q 1433.206 306.825 1429.21 296.885 Q 1425.214 286.944 1425.214 275.555 Q 1425.214 264.167 1429.16 254.326 Q 1433.106 244.486 1440.149 237.193 Q 1447.192 229.9 1457.033 225.704 Q 1466.873 221.508 1478.661 221.508 Q 1485.155 221.508 1490.85 222.757 Q 1496.544 224.006 1501.739 226.304 L 1501.739 200.029 L 1487.253 200.029 Z M 1480.959 302.529 Q 1487.553 302.329 1492.898 299.132 Q 1498.242 295.935 1501.739 290.741 L 1501.739 260.27 Q 1498.242 254.975 1492.698 252.028 Q 1487.153 249.081 1480.959 249.181 Q 1475.764 249.081 1471.219 250.979 Q 1466.673 252.878 1463.227 256.374 Q 1459.78 259.871 1457.782 264.766 Q 1455.784 269.661 1455.784 275.855 Q 1455.784 281.949 1457.782 286.894 Q 1459.78 291.839 1463.227 295.286 Q 1466.673 298.733 1471.219 300.531 Q 1475.764 302.329 1480.959 302.529 Z" style="fill: rgb(51, 51, 51); text-transform: lowercase; white-space: pre;"/>
</svg>