<?xml version="1.0" encoding="utf-8"?>
<svg viewBox="-79.722 -28.034 648.932 553.439" xmlns="http://www.w3.org/2000/svg">
  <defs>
    <linearGradient gradientUnits="userSpaceOnUse" x1="231.175" y1="36.069" x2="231.175" y2="452.497" id="gradient-0">
      <stop offset="0" style="stop-color: rgb(255, 251, 25);"/>
      <stop offset="1" style="stop-color: rgb(89, 180, 233);"/>
    </linearGradient>
  </defs>
  <rect style="fill-rule: nonzero; stroke-miterlimit: 6; paint-order: stroke; stroke-width: 65px; fill: rgb(61, 61, 59); stroke: rgb(255, 255, 255);" x="-24.615" y="29.481" width="549.231" height="441.039" rx="25" ry="25" transform="matrix(0.999524, 0.030853, -0.030853, 0.999524, 2.576476, -8.909148)">
    <title>Works for Good Logo</title>
  </rect>
  <rect style="paint-order: fill; fill-opacity: 0; stroke-width: 28px; stroke-linecap: round; stroke-miterlimit: 7; stroke: url(#gradient-0); fill: rgb(255, 255, 255);" transform="matrix(0.999525, 0.030833, -0.030833, 0.999525, 21.180186, -3.149949)" x="-31.147" y="36.069" width="524.644" height="416.428" rx="12.682" ry="12.682"/>
  <path d="M 53.733 200.832 L 107.78 200.832 L 107.78 228.205 L 96.091 228.205 L 107.081 265.069 L 128.36 200.832 L 157.631 200.832 L 179.11 268.366 L 192.297 228.205 L 181.208 228.205 L 181.208 200.832 L 235.255 200.832 L 235.255 228.205 L 221.369 228.205 L 193.696 304.731 L 163.825 304.731 L 142.146 238.695 L 120.068 304.731 L 90.996 304.731 L 65.321 228.205 L 53.733 228.205 L 53.733 200.832 Z" style="text-transform: lowercase; white-space: pre; stroke-width: 0px; fill: rgb(255, 255, 255);"/>
  <path d="M 292.199 200.832 L 311.081 200.832 L 311.081 227.007 L 292.199 227.007 L 292.199 276.958 L 311.281 276.958 L 311.281 304.331 L 247.044 304.331 L 247.044 276.958 L 262.528 276.958 L 262.528 227.007 L 246.844 227.007 L 246.844 200.832 L 262.528 200.832 L 262.528 183.649 C 262.528 177.588 263.594 172.26 265.725 167.665 C 267.856 163.069 270.704 159.206 274.267 156.076 C 277.83 152.946 281.943 150.582 286.605 148.983 C 291.267 147.384 296.162 146.585 301.291 146.585 C 305.087 146.585 308.484 146.868 311.481 147.434 C 314.478 148.001 317.108 148.717 319.373 149.582 C 321.638 150.448 323.552 151.381 325.117 152.38 C 326.682 153.379 327.931 154.311 328.864 155.177 L 317.375 176.256 C 315.843 175.124 314.111 174.225 312.18 173.559 C 310.249 172.893 307.884 172.56 305.087 172.56 C 303.289 172.56 301.607 172.86 300.042 173.459 C 298.477 174.058 297.111 174.924 295.946 176.056 C 294.781 177.189 293.865 178.604 293.199 180.302 C 292.532 182.001 292.199 183.982 292.199 186.246 L 292.199 200.832 Z" style="text-transform: lowercase; white-space: pre; fill: rgb(255, 255, 255);"/>
  <path d="M 405.485 298.936 C 401.755 301.067 398.025 302.599 394.296 303.532 C 390.566 304.464 386.77 304.93 382.907 304.93 C 374.915 304.93 367.556 303.565 360.829 300.834 C 354.102 298.103 348.291 294.324 343.396 289.495 C 338.501 284.667 334.688 278.956 331.957 272.362 C 329.226 265.769 327.861 258.609 327.861 250.883 C 327.861 243.624 329.176 236.78 331.807 230.353 C 334.438 223.926 338.117 218.299 342.846 213.47 C 347.575 208.641 353.236 204.828 359.83 202.031 C 366.423 199.234 373.583 197.802 381.309 197.735 C 386.038 197.802 390.383 198.301 394.346 199.234 C 398.309 200.166 402.022 201.431 405.485 203.03 L 405.485 200.832 L 435.755 200.832 L 435.755 300.035 C 435.755 308.76 434.257 316.302 431.26 322.663 C 428.263 329.024 424.25 334.285 419.222 338.448 C 414.193 342.611 408.349 345.708 401.689 347.739 C 395.029 349.77 388.036 350.786 380.709 350.786 C 371.652 350.786 363.277 349.554 355.584 347.089 C 347.891 344.625 341.048 341.295 335.054 337.099 L 347.542 314.921 C 352.137 317.851 357.132 320.165 362.527 321.864 C 367.922 323.562 373.916 324.411 380.509 324.411 C 384.106 324.411 387.419 324.012 390.45 323.213 C 393.48 322.414 396.111 321.065 398.342 319.166 C 400.573 317.268 402.322 314.721 403.587 311.524 C 404.852 308.327 405.485 304.298 405.485 299.436 L 405.485 298.936 Z M 383.906 277.257 C 388.568 277.257 392.781 276.075 396.544 273.711 C 400.307 271.346 403.287 268.233 405.485 264.37 L 405.685 239.195 C 403.42 234.999 400.323 231.669 396.394 229.204 C 392.465 226.74 388.202 225.475 383.606 225.408 C 380.343 225.475 377.146 226.124 374.016 227.356 C 370.885 228.588 368.171 230.336 365.874 232.601 C 363.576 234.866 361.761 237.546 360.429 240.643 C 359.097 243.74 358.431 247.187 358.431 250.983 C 358.431 254.979 359.097 258.609 360.429 261.872 C 361.761 265.136 363.559 267.9 365.824 270.164 C 368.088 272.429 370.769 274.177 373.866 275.409 C 376.963 276.641 380.309 277.257 383.906 277.257 Z" style="text-transform: lowercase; white-space: pre; fill: rgb(255, 255, 255);"/>
</svg>